<svg width="314" height="316" viewBox="0 0 314 316" fill="none" xmlns="http://www.w3.org/2000/svg">
<path d="M43.5594 172.6H86.9594V142.8H43.5594V172.6ZM43.5594 229.2H90.3594V195.8H43.5594V229.2ZM121.159 139.2V172.2L109.359 182L125.159 195.2V232.8L101.959 256H9.95938V116H97.9594L121.159 139.2ZM192.381 256V116H225.981V170.4H245.981L272.981 116H310.181L275.381 182L313.181 256H275.581L247.581 199.6H225.981V256H192.381Z" fill="#1858CE"/>
<path d="M134.616 251.44V238.16L139.176 233.6H150.856L155.416 238.16V251.44L150.856 256H139.176L134.616 251.44ZM141.336 250.64H148.696V238.96H141.336V250.64ZM158.6 251.44V238.16L163.16 233.6H174.84L179.4 238.16V251.44L174.84 256H163.16L158.6 251.44ZM165.32 250.64H172.68V238.96H165.32V250.64Z" fill="#3570EF"/>
<g clip-path="url(#clip0_19_676)">
<path d="M59.0734 38.7319H45.4251C44.7034 38.7319 44.1184 39.3663 44.1184 40.1487V91.9444C44.1184 92.7269 44.7034 93.3612 45.4251 93.3612H59.0734C59.795 93.3612 60.3801 92.7269 60.3801 91.9444V40.1487C60.3801 39.3663 59.795 38.7319 59.0734 38.7319Z" fill="#1858CE"/>
<path d="M95.4613 45.152C96.1944 46.949 97.1661 48.62 98.3454 50.1119C98.4563 50.2514 98.5695 50.3885 98.6848 50.5233C99.1303 51.0415 99.6101 51.5238 100.12 51.9665C100.242 52.0747 100.369 52.1782 100.493 52.2792C101.977 53.4675 103.479 54.076 104.874 54.076C105.003 54.076 105.13 54.076 105.256 54.0592L105.394 54.0472H105.411C105.491 54.0472 105.569 54.0279 105.649 54.0135C105.686 54.0135 105.722 53.9991 105.76 53.9919L105.899 53.963L106.013 53.9341L106.148 53.9004L106.239 53.8692L106.394 53.8211L106.487 53.785C106.536 53.7657 106.587 53.7489 106.636 53.7273L106.676 53.708C106.742 53.6816 106.807 53.6527 106.873 53.619C106.991 53.5613 107.106 53.4987 107.219 53.4338L107.255 53.4097C107.355 53.3472 107.452 53.2847 107.548 53.2173C107.761 53.0652 107.962 52.8947 108.149 52.7074C108.162 52.7074 108.173 52.6809 108.184 52.6689C108.46 52.3888 108.707 52.0775 108.921 51.7404L108.959 51.6754C109.021 51.5744 109.083 51.4734 109.141 51.3676C109.149 51.3528 109.156 51.3376 109.163 51.3218C109.225 51.2064 109.285 51.0813 109.34 50.9707C109.356 50.9394 109.367 50.9081 109.38 50.8793C109.429 50.771 109.478 50.6628 109.522 50.5497C109.547 50.4896 109.567 50.4246 109.589 50.3621C109.611 50.2995 109.653 50.1937 109.684 50.1047L109.737 49.9243C109.97 49.1575 110.119 48.364 110.181 47.5598C110.403 44.8633 109.842 41.7291 108.599 38.7367C105.882 32.1868 100.868 28.4632 97.1829 30.2601C95.2949 31.1814 94.1191 33.3342 93.8729 36.3265C93.8172 37.0233 93.8105 37.7237 93.8529 38.4216C94.0138 40.7513 94.5586 43.0308 95.4613 45.152Z" fill="#1858CE"/>
<path d="M141.096 30.2937C140.521 30.2932 139.959 30.4777 139.481 30.8237C139.003 31.1697 138.631 31.6617 138.411 32.2374C138.191 32.8132 138.133 33.4467 138.246 34.0578C138.358 34.669 138.635 35.2302 139.042 35.6705C139.449 36.1108 139.967 36.4104 140.53 36.5313C141.094 36.6521 141.679 36.5889 142.209 36.3495C142.74 36.1102 143.193 35.7055 143.511 35.1867C143.83 34.6679 143.999 34.0583 143.998 33.4352C143.996 32.6018 143.69 31.8031 143.146 31.2142C142.602 30.6254 141.865 30.2943 141.096 30.2937Z" fill="#1858CE"/>
<path d="M129.211 37.8539C129.191 37.7504 129.139 37.6572 129.064 37.5889C128.99 37.5205 128.896 37.4808 128.799 37.4759C128.701 37.4709 128.605 37.5011 128.524 37.5616C128.444 37.6221 128.385 37.7097 128.355 37.8106C128.072 38.6064 127.639 39.329 127.082 39.9319C126.526 40.5347 125.859 41.0043 125.125 41.3105C125.034 41.3429 124.954 41.4065 124.899 41.492C124.844 41.5774 124.816 41.6799 124.819 41.7841C124.822 41.8883 124.857 41.9885 124.917 42.0697C124.978 42.1509 125.061 42.2086 125.154 42.2342C125.908 42.4824 126.594 42.929 127.151 43.5341C127.708 44.1392 128.119 44.8842 128.346 45.7028C128.375 45.8005 128.432 45.8856 128.509 45.9457C128.585 46.0059 128.678 46.0379 128.772 46.0371C128.867 46.0387 128.959 46.0077 129.036 45.9484C129.113 45.8891 129.171 45.8048 129.2 45.7076C129.441 44.8955 129.857 44.1574 130.413 43.5542C130.97 42.951 131.65 42.5002 132.399 42.239C132.49 42.2046 132.569 42.1399 132.623 42.0543C132.678 41.9686 132.706 41.8663 132.704 41.762C132.702 41.6578 132.669 41.557 132.611 41.4742C132.553 41.3913 132.472 41.3307 132.379 41.3009C131.616 41.0854 130.919 40.6521 130.362 40.0459C129.805 39.4397 129.407 38.6828 129.211 37.8539Z" fill="#1858CE"/>
<path d="M123.976 21.0617C126.991 22.1586 128.95 24.2826 129.966 27.5564C130.022 27.7391 130.13 27.8982 130.274 28.0112C130.418 28.1242 130.591 28.1855 130.769 28.1866C130.946 28.1863 131.118 28.1265 131.263 28.0153C131.407 27.9042 131.516 27.7471 131.574 27.566C132.626 24.3259 134.589 22.1971 137.58 21.0569C137.749 20.9913 137.895 20.8696 137.996 20.7089C138.098 20.5482 138.15 20.3569 138.146 20.1621C138.141 19.9673 138.081 19.779 137.972 19.624C137.863 19.4689 137.712 19.3551 137.54 19.2986C134.458 18.3003 132.51 16.1884 131.59 12.8449C131.54 12.6612 131.438 12.4989 131.299 12.3804C131.161 12.262 130.991 12.1933 130.815 12.1838C130.638 12.1742 130.464 12.2244 130.315 12.3274C130.166 12.4303 130.05 12.5809 129.983 12.7583C129.452 14.2515 128.639 15.6075 127.595 16.739C126.551 17.8704 125.3 18.7522 123.922 19.3274C123.761 19.3993 123.625 19.5228 123.53 19.6813C123.436 19.8399 123.388 20.026 123.394 20.2146C123.4 20.4033 123.459 20.5855 123.563 20.7369C123.666 20.8883 123.811 21.0017 123.976 21.0617Z" fill="#1858CE"/>
<path d="M137.296 102.757H123.667L134.658 97.3975C135.64 96.9154 136.406 96.0313 136.788 94.9385C137.17 93.8458 137.137 92.6334 136.697 91.5667L126.665 67.39L122.358 57.0082L108.022 22.4449C107.803 21.9167 107.491 21.4404 107.102 21.0434C106.713 20.6464 106.256 20.3364 105.756 20.131C105.257 19.9257 104.725 19.8292 104.191 19.8469C103.657 19.8646 103.132 19.9963 102.645 20.2343L86.6449 28.0351C86.1282 28.2857 85.6662 28.6521 85.2894 29.1103L79.6855 3.39889C79.5634 2.83503 79.3399 2.30283 79.0278 1.83276C78.7157 1.36268 78.3212 0.96396 77.8668 0.659423C77.4124 0.354885 76.9071 0.150512 76.3798 0.0580046C75.8524 -0.034503 75.3134 -0.0133286 74.7937 0.120316L61.9707 3.4037C60.922 3.67446 60.0151 4.38519 59.4491 5.37996C58.8831 6.37474 58.704 7.57233 58.9513 8.71003L63.0378 27.4722C62.5989 27.3001 62.1358 27.2114 61.669 27.21H42.8339C42.3369 27.2113 41.8443 27.3116 41.3807 27.5059V13.9514C41.3796 12.7084 40.9236 11.5167 40.113 10.6378C39.3024 9.75889 38.2033 9.26455 37.0569 9.26328H19.9744C19.406 9.26264 18.843 9.3834 18.3177 9.61866C17.7923 9.85392 17.3148 10.1991 16.9125 10.6344C16.5102 11.0697 16.1909 11.5867 15.9728 12.1559C15.7548 12.725 15.6422 13.3351 15.6416 13.9514V100.209C15.6411 101.117 15.8855 102.005 16.3449 102.764H13.8003C12.808 102.79 11.8644 103.236 11.1711 104.006C10.4777 104.776 10.0896 105.809 10.0896 106.886C10.0896 107.962 10.4777 108.995 11.1711 109.765C11.8644 110.536 12.808 110.981 13.8003 111.007H137.296C138.288 110.981 139.232 110.536 139.925 109.765C140.618 108.995 141.006 107.962 141.006 106.886C141.006 105.809 140.618 104.776 139.925 104.006C139.232 103.236 138.288 102.79 137.296 102.764V102.757ZM100.005 96.6205L98.1501 88.1222L96.5062 80.5812L88.2312 42.6191L98.9421 68.4363L103.248 78.8157L113.183 102.764H93.7442L96.981 101.936C98.0312 101.665 98.9392 100.952 99.506 99.9559C100.073 98.9595 100.252 97.7601 100.005 96.6205ZM124.817 69.8435L134.312 92.7286C134.47 93.1095 134.483 93.543 134.347 93.9339C134.211 94.3249 133.937 94.6414 133.586 94.8141L117.586 102.62C117.234 102.79 116.834 102.802 116.473 102.654C116.113 102.505 115.821 102.207 115.663 101.826L106.168 78.936L106.39 78.8229L124.817 69.8435ZM86.9533 31.4965C87.0208 31.3027 87.1229 31.1254 87.2539 30.9747C87.3849 30.824 87.5421 30.703 87.7165 30.6185L103.719 22.8153C103.906 22.7244 104.108 22.6769 104.313 22.6758C104.489 22.6754 104.664 22.7105 104.828 22.7793C105.007 22.852 105.171 22.9626 105.31 23.1047C105.45 23.2467 105.562 23.4174 105.64 23.6067L119.441 56.8759L102.789 64.9966L100.792 65.9732L86.9821 32.7136C86.9025 32.5231 86.8589 32.3173 86.854 32.1082C86.849 31.8991 86.8828 31.6911 86.9533 31.4965ZM85.9927 84.721L94.2633 82.5994L95.3082 87.3934L84.8169 90.0802L79.6611 91.4056L78.6184 86.6164L85.9927 84.721ZM65.1831 9.72752L74.5297 7.33414C74.6972 7.29011 74.8711 7.28239 75.0414 7.31144C75.2117 7.34048 75.375 7.40571 75.522 7.50339C75.669 7.60106 75.7967 7.72925 75.8979 7.88059C75.999 8.03194 76.0716 8.20345 76.1115 8.3853L79.8829 25.673C79.9225 25.854 79.9287 26.0417 79.9012 26.2253C79.8738 26.4089 79.8132 26.5849 79.7229 26.743C79.6327 26.9012 79.5145 27.0386 79.3752 27.1472C79.2359 27.2558 79.0783 27.3336 78.9112 27.376L69.5647 29.7814C69.4664 29.8061 69.366 29.819 69.2652 29.8199C68.9707 29.8202 68.6848 29.7124 68.454 29.5141C68.2232 29.3158 68.0611 29.0387 67.994 28.7278L64.2225 11.4402C64.1815 11.2593 64.1738 11.0715 64.1999 10.8874C64.226 10.7033 64.2854 10.5266 64.3747 10.3675C64.4639 10.2084 64.5813 10.0699 64.72 9.96008C64.8588 9.85026 65.0161 9.77122 65.1831 9.72752ZM41.3719 100.202V31.6119C41.3725 31.194 41.5257 30.7934 41.798 30.4977C42.0703 30.202 42.4396 30.0353 42.825 30.034H61.669C62.0548 30.0346 62.4246 30.2011 62.6974 30.4969C62.9702 30.7926 63.1237 31.1936 63.1243 31.6119V100.481C63.1237 100.899 62.9702 101.3 62.6973 101.595C62.4244 101.891 62.0546 102.057 61.669 102.057H42.8339C42.4487 102.056 42.0794 101.89 41.807 101.595C41.5346 101.299 41.3813 100.899 41.3807 100.481L41.3719 100.202ZM18.255 31.0106H38.7585V34.0077H18.255V31.0106ZM18.255 36.8389H38.7585V43.5019H18.255V36.8389ZM18.255 79.5758H38.7585V82.5705H18.255V79.5758ZM65.7311 100.481V39.848L75.7632 85.8852L77.4071 93.4237L79.2595 101.927C79.3206 102.21 79.4075 102.485 79.5191 102.749H65.1454C65.5305 102.066 65.7346 101.282 65.7355 100.481H65.7311Z" fill="#1858CE"/>
</g>
<defs>
<clipPath id="clip0_19_676">
<rect width="134" height="111" fill="white" transform="translate(10)"/>
</clipPath>
</defs>
</svg>
