<svg width="30" height="30" viewBox="0 0 30 30" fill="none" xmlns="http://www.w3.org/2000/svg">
<path d="M24.9648 7.27113L25.887 6.88432L24.9648 7.27113ZM24.1386 7.88681C24.3523 8.3961 24.9383 8.63579 25.4476 8.42216C25.9569 8.20853 26.1966 7.62249 25.983 7.11319L25.0608 7.5L24.1386 7.88681ZM20.9964 2.19652C20.4836 1.99141 19.9016 2.24083 19.6965 2.75361C19.4914 3.26639 19.7408 3.84836 20.2536 4.05348L20.625 3.125L20.9964 2.19652ZM20.834 3.20861L21.2054 2.28014L21.2054 2.28014L20.834 3.20861ZM5.096 7.27113L4.17384 6.88432L4.17384 6.88433L5.096 7.27113ZM4.07784 7.11319C3.86421 7.62249 4.1039 8.20853 4.61319 8.42216C5.12249 8.63579 5.70853 8.3961 5.92216 7.88681L5 7.5L4.07784 7.11319ZM9.8072 4.05348C10.32 3.84836 10.5694 3.26639 10.3643 2.75361C10.1592 2.24083 9.5772 1.99141 9.06442 2.19652L9.43581 3.125L9.8072 4.05348ZM9.22677 3.20861L8.85538 2.28014L8.85538 2.28014L9.22677 3.20861ZM22.7994 11.219L21.8058 11.3318L22.7994 11.219ZM23.3584 16.1441L24.352 16.0313V16.0313L23.3584 16.1441ZM6.6416 16.1441L5.64798 16.0313V16.0313L6.6416 16.1441ZM7.20058 11.219L6.20696 11.1062L7.20058 11.219ZM5.55973 18.5902L4.79825 17.942H4.79825L5.55973 18.5902ZM24.4403 18.5902L23.6788 19.2383L24.4403 18.5902ZM17.8374 5.46708H16.8374C16.8374 5.89452 17.1091 6.2747 17.5135 6.41316L17.8374 5.46708ZM12.1626 5.46708L12.4865 6.41316C12.8909 6.2747 13.1626 5.89452 13.1626 5.46708H12.1626ZM19.6864 25.3509C19.8802 24.8338 19.6181 24.2574 19.1009 24.0636C18.5838 23.8698 18.0074 24.1319 17.8136 24.6491L18.75 25L19.6864 25.3509ZM12.1864 24.6491C11.9926 24.1319 11.4162 23.8698 10.8991 24.0636C10.3819 24.2574 10.1198 24.8338 10.3136 25.3509L11.25 25L12.1864 24.6491ZM24.9648 7.27113L24.0426 7.65794L24.1386 7.88681L25.0608 7.5L25.983 7.11319L25.887 6.88432L24.9648 7.27113ZM20.625 3.125L20.2536 4.05348L20.4626 4.13709L20.834 3.20861L21.2054 2.28014L20.9964 2.19652L20.625 3.125ZM24.9648 7.27113L25.887 6.88432C25.0062 4.78447 23.3197 3.12583 21.2054 2.28014L20.834 3.20861L20.4626 4.13709C22.0794 4.7838 23.3691 6.05217 24.0426 7.65794L24.9648 7.27113ZM5.096 7.27113L4.17384 6.88433L4.07784 7.11319L5 7.5L5.92216 7.88681L6.01816 7.65794L5.096 7.27113ZM9.43581 3.125L9.06442 2.19652L8.85538 2.28014L9.22677 3.20861L9.59817 4.13709L9.8072 4.05348L9.43581 3.125ZM5.096 7.27113L6.01816 7.65794C6.69171 6.05217 7.9814 4.7838 9.59817 4.13709L9.22677 3.20861L8.85538 2.28014C6.74115 3.12583 5.05464 4.78447 4.17384 6.88432L5.096 7.27113ZM22.2215 22.5V21.5H7.77852V22.5V23.5H22.2215V22.5ZM22.7994 11.219L21.8058 11.3318L22.3648 16.2568L23.3584 16.1441L24.352 16.0313L23.793 11.1062L22.7994 11.219ZM6.6416 16.1441L7.63522 16.2568L8.1942 11.3318L7.20058 11.219L6.20696 11.1062L5.64798 16.0313L6.6416 16.1441ZM5.55973 18.5902L6.32121 19.2383C7.05049 18.3816 7.51098 17.3515 7.63522 16.2568L6.6416 16.1441L5.64798 16.0313C5.57086 16.7107 5.28311 17.3724 4.79825 17.942L5.55973 18.5902ZM23.3584 16.1441L22.3648 16.2568C22.489 17.3515 22.9495 18.3816 23.6788 19.2383L24.4403 18.5902L25.2017 17.942C24.7169 17.3724 24.4291 16.7107 24.352 16.0313L23.3584 16.1441ZM7.77852 22.5V21.5C6.98131 21.5 6.42335 21.1064 6.16756 20.6556C5.92163 20.2223 5.92458 19.7043 6.32121 19.2383L5.55973 18.5902L4.79825 17.942C3.8236 19.087 3.7932 20.5239 4.42812 21.6427C5.05317 22.7442 6.29025 23.5 7.77852 23.5V22.5ZM22.2215 22.5V23.5C23.7098 23.5 24.9468 22.7442 25.5719 21.6427C26.2068 20.5239 26.1764 19.087 25.2017 17.942L24.4403 18.5902L23.6788 19.2383C24.0754 19.7043 24.0784 20.2223 23.8324 20.6556C23.5767 21.1064 23.0187 21.5 22.2215 21.5V22.5ZM17.8374 5.46708H18.8374V5.33743H17.8374H16.8374V5.46708H17.8374ZM22.7994 11.219L23.793 11.1062C23.4408 8.00279 21.1397 5.54075 18.1614 4.521L17.8374 5.46708L17.5135 6.41316C19.8911 7.22723 21.5552 9.12379 21.8058 11.3318L22.7994 11.219ZM12.1626 5.46708H13.1626V5.33743H12.1626H11.1626V5.46708H12.1626ZM7.20058 11.219L8.1942 11.3318C8.4448 9.12379 10.1089 7.22723 12.4865 6.41316L12.1626 5.46708L11.8386 4.52099C8.86029 5.54075 6.55919 8.00279 6.20696 11.1062L7.20058 11.219ZM15 2.5V3.5C16.0148 3.5 16.8374 4.32265 16.8374 5.33743H17.8374H18.8374C18.8374 3.21808 17.1194 1.5 15 1.5V2.5ZM15 2.5V1.5C12.8806 1.5 11.1626 3.21808 11.1626 5.33743H12.1626H13.1626C13.1626 4.32265 13.9852 3.5 15 3.5V2.5ZM18.75 25L17.8136 24.6491C17.4197 25.7001 16.3307 26.5 15 26.5V27.5V28.5C17.1319 28.5 18.9886 27.2129 19.6864 25.3509L18.75 25ZM15 27.5V26.5C13.6693 26.5 12.5803 25.7001 12.1864 24.6491L11.25 25L10.3136 25.3509C11.0114 27.2129 12.8681 28.5 15 28.5V27.5Z" fill="#1A1A1A" fill-opacity="0.4"/>
</svg>
