<svg width="30" height="30" viewBox="0 0 30 30" fill="none" xmlns="http://www.w3.org/2000/svg">
<path d="M25 13.75H5M25 13.75C26.3807 13.75 27.5 14.8693 27.5 16.25V21.25C27.5 24.0114 25.2614 26.25 22.5 26.25H7.5C4.73858 26.25 2.5 24.0114 2.5 21.25V16.25C2.5 14.8693 3.61929 13.75 5 13.75M25 13.75V11.25C25 9.86929 23.8807 8.75 22.5 8.75M5 13.75V11.25C5 9.86929 6.11929 8.75 7.5 8.75M22.5 8.75H7.5M22.5 8.75V6.25C22.5 4.86929 21.3807 3.75 20 3.75H10C8.61929 3.75 7.5 4.86929 7.5 6.25V8.75M12.5 17.5H17.5" stroke="#1A1A1A" stroke-opacity="0.4" stroke-width="2" stroke-linecap="round"/>
</svg>
