<svg width="30" height="30" viewBox="0 0 30 30" fill="none" xmlns="http://www.w3.org/2000/svg">
<path d="M20 20.0001L15 15.0001M15 15.0001L9.99995 20.0001M15 15.0001V26.2501M25.4874 22.9876C26.7066 22.3229 27.6697 21.2712 28.2248 19.9984C28.7798 18.7256 28.8952 17.3041 28.5527 15.9585C28.2102 14.6128 27.4293 13.4195 26.3333 12.5669C25.2373 11.7143 23.8885 11.251 22.4999 11.2501H20.925C20.5466 9.78665 19.8414 8.42802 18.8624 7.27634C17.8834 6.12467 16.656 5.20991 15.2726 4.60086C13.8891 3.99181 12.3856 3.7043 10.8751 3.75995C9.36455 3.81561 7.88628 4.21298 6.55142 4.92218C5.21656 5.63139 4.05984 6.63398 3.16823 7.85458C2.27662 9.07518 1.67331 10.482 1.40368 11.9693C1.13404 13.4567 1.20508 14.9858 1.61147 16.4417C2.01785 17.8976 2.749 19.2424 3.74995 20.3751" stroke="#1A1A1A" stroke-opacity="0.4" stroke-width="2" stroke-linecap="round" stroke-linejoin="round"/>
</svg>
